<svg width="146" height="60" viewBox="0 0 146 60" fill="none" xmlns="http://www.w3.org/2000/svg">
<path d="M122.536 13.6098C122.439 14.4878 122.048 15.2195 121.756 16.0488C121.512 16.6829 121.316 17.2683 121.17 17.9024C121.024 18.4878 120.877 19.0244 120.828 19.6098C120.828 19.7073 120.78 20.5366 120.78 20.878L116.583 19.0244L115.704 19.6098L113.313 21.4634C112.484 20.3902 111.215 19.1707 109.751 17.9512C109.605 17.8049 109.458 17.6585 109.312 17.4634L109.214 17.3659C108.482 16.4878 107.945 15.4634 107.701 14.2927C106.774 10.2439 109.312 6.14634 113.362 5.21951C117.412 4.29268 121.512 6.82927 122.439 10.878C122.585 11.8049 122.634 12.7317 122.536 13.6098Z" fill="#F3EB4D"/>
<path d="M112.825 3.65857C112.679 3.70735 112.533 3.60979 112.484 3.46345L111.849 0.634182C111.801 0.48784 111.898 0.341499 112.045 0.292719C112.191 0.243938 112.337 0.341499 112.386 0.48784L113.021 3.31711C113.069 3.46345 112.972 3.60979 112.825 3.65857Z" fill="#358EC5"/>
<path d="M116.339 3.46343C116.192 3.46343 116.046 3.31709 116.095 3.12197L116.485 0.243919C116.485 0.0975774 116.632 -0.0487641 116.827 1.6409e-05C116.973 1.6409e-05 117.12 0.146358 117.071 0.34148L116.68 3.21953C116.632 3.36587 116.485 3.51221 116.339 3.46343Z" fill="#358EC5"/>
<path d="M119.609 4.73174C119.462 4.63417 119.413 4.48783 119.462 4.34149L120.829 1.75613C120.926 1.60978 121.073 1.561 121.219 1.60978C121.365 1.70735 121.414 1.85369 121.365 2.00003L119.999 4.58539C119.901 4.78052 119.755 4.8293 119.609 4.73174Z" fill="#358EC5"/>
<path d="M122.146 6.92684C122.048 6.82928 122.048 6.63416 122.146 6.5366L124.293 4.58538C124.391 4.48782 124.586 4.48782 124.684 4.58538C124.781 4.68294 124.781 4.87806 124.684 4.97562L122.536 6.92684C122.439 7.0244 122.244 7.0244 122.146 6.92684Z" fill="#358EC5"/>
<path d="M123.757 9.8049C123.708 9.65856 123.757 9.46344 123.903 9.41466L126.587 8.29271C126.733 8.24393 126.929 8.29271 126.977 8.43905C127.026 8.58539 126.977 8.78051 126.831 8.82929L124.147 9.95124C124.001 10 123.805 9.95124 123.757 9.8049Z" fill="#358EC5"/>
<path d="M124.293 12.9756C124.293 12.8293 124.391 12.6829 124.586 12.6829L127.514 12.5854C127.66 12.5854 127.807 12.6829 127.807 12.8781C127.807 13.0244 127.709 13.1708 127.514 13.1708L124.586 13.2683C124.44 13.2683 124.293 13.122 124.293 12.9756Z" fill="#358EC5"/>
<path d="M123.708 16.1951C123.757 16.0488 123.903 15.9512 124.098 16L126.88 16.9269C127.026 16.9756 127.124 17.122 127.075 17.3171C127.026 17.4634 126.88 17.561 126.685 17.5122L123.903 16.5854C123.708 16.5366 123.659 16.3415 123.708 16.1951Z" fill="#358EC5"/>
<path d="M109.849 4.97563C109.995 4.87807 110.044 4.68295 109.946 4.58539L108.336 2.14636C108.238 2.00002 108.043 1.95124 107.945 2.0488C107.848 2.14636 107.75 2.34149 107.848 2.43905L109.458 4.87807C109.507 5.02441 109.702 5.07319 109.849 4.97563Z" fill="#358EC5"/>
<path d="M107.457 7.561C107.555 7.41466 107.506 7.26832 107.409 7.17076L105.066 5.41466C104.92 5.3171 104.773 5.36588 104.676 5.46344C104.578 5.60978 104.627 5.75612 104.725 5.85368L107.067 7.60978C107.165 7.70734 107.36 7.65856 107.457 7.561Z" fill="#358EC5"/>
<path d="M106.14 10.5854C106.188 10.4391 106.091 10.2439 105.944 10.2439L103.163 9.41467C103.016 9.36589 102.821 9.46345 102.821 9.60979C102.772 9.75613 102.87 9.95125 103.016 9.95125L105.798 10.7805C105.944 10.8293 106.091 10.7805 106.14 10.5854Z" fill="#358EC5"/>
<path d="M105.945 13.9025C105.945 13.7561 105.798 13.6098 105.652 13.6098L102.724 13.8049C102.577 13.8049 102.431 13.9512 102.431 14.0976C102.431 14.2439 102.577 14.3903 102.724 14.3903L105.652 14.1951C105.798 14.1951 105.945 14.0488 105.945 13.9025Z" fill="#358EC5"/>
<path d="M106.823 16.9756C106.774 16.8293 106.579 16.7805 106.432 16.8293L103.748 18C103.602 18.0488 103.553 18.2439 103.602 18.3903C103.651 18.5366 103.846 18.5854 103.992 18.5366L106.676 17.3659C106.823 17.3171 106.92 17.122 106.823 16.9756Z" fill="#358EC5"/>
<path d="M108.824 19.6586C108.726 19.561 108.531 19.561 108.433 19.6586L106.335 21.7073C106.237 21.8049 106.237 22 106.335 22.0976C106.433 22.1951 106.628 22.1951 106.725 22.0976L108.824 20.0488C108.921 19.9512 108.921 19.7561 108.824 19.6586Z" fill="#358EC5"/>
<path d="M113.557 57.0244L120.682 60L126.636 57.3171L119.804 54.6342L113.557 57.0244Z" fill="#568CC9"/>
<path d="M120.389 54.0488L127.221 56.439C127.173 53.0732 126.977 50.0976 126.782 47.6585C126.538 44.5366 125.855 37.9512 124.001 29.6585C123.269 26.3415 122.537 23.561 121.902 21.3659L116.534 18.9756C117.901 23.7073 119.218 29.4634 119.95 36.0488C120.731 42.9268 120.731 49.0244 120.389 54.0488Z" fill="#568CC9"/>
<path d="M112.679 56.1464L119.218 53.7561C119.462 49.561 119.462 44.7805 119.072 39.6586C118.486 31.9512 117.12 25.2195 115.656 19.6098L112.972 21.7073C113.704 27.2683 114.241 33.8537 113.997 41.1707C113.85 46.6342 113.362 51.6586 112.679 56.1464Z" fill="#568CC9"/>
<path d="M102.431 42.9268C104.676 43.4146 108.531 45.2683 108.531 49.9024C108.531 52.3415 107.604 53.9512 106.53 55.0244C104.676 56.9268 101.65 57.6585 97.8438 57.6585C95.843 57.6585 94.2814 57.5122 93.2566 57.4634V30.4878C94.8182 30.1464 96.6238 29.8537 98.5758 29.8537C105.749 29.8537 107.409 33.3171 107.409 36.6342C107.409 39.4634 105.261 41.8049 102.48 42.7317V42.9268H102.431ZM99.015 42.3415C103.261 42.3415 105.993 39.8049 105.993 36.6342V36.5854C105.993 32.4878 102.724 30.9268 98.283 30.9268C96.331 30.9268 95.2086 31.122 94.5254 31.2683V42.2927H99.015V42.3415ZM94.5254 56.3415C95.5014 56.5854 96.6238 56.6342 98.1854 56.6342C102.773 56.6342 107.116 54.9756 107.116 50.0488C107.116 45.3171 102.821 43.4634 98.3318 43.4634H94.5254V56.3415Z" fill="black"/>
<path d="M145.424 37.4634V38.439L133.907 53.1708C133.224 54.0488 132.541 54.8781 131.857 55.7073V55.7561H145.424V56.8781H130.149V56.0488L141.666 41.2683C142.398 40.3903 143.033 39.5122 143.862 38.6342V38.5854H131.125V37.4634H145.424Z" fill="black"/>
<path d="M19.6664 31.4146H10.492V57.6585H9.22318V31.4146H0V30.2927H19.6664V31.4146Z" fill="#358EC5"/>
<path d="M37.1367 57.4634H35.8679V45.8049C35.8679 42.1951 34.4527 38.6829 30.2071 38.6829C26.8887 38.6829 23.6191 41.8049 23.6191 45.561V57.4634H22.3503V28.6342H23.6191V41.7073H23.6679C25.5711 38.2439 28.7919 37.6098 30.4023 37.6098C32.1591 37.6098 37.0879 38.2439 37.0879 45.7073V57.4634H37.1367Z" fill="#358EC5"/>
<path d="M43.7734 38.1951V57.6098H44.8958V38.1951H43.7734Z" fill="#358EC5"/>
<path d="M45.5304 32.8781C45.5304 33.6098 45.0424 34.0488 44.3104 34.0488C43.6272 34.0488 43.1392 33.4634 43.1392 32.8781C43.1392 32.2927 43.6272 31.7073 44.3592 31.7073C45.0424 31.6586 45.5304 32.1951 45.5304 32.8781Z" fill="#358EC5"/>
<path d="M66.4167 57.4634H65.1479V45.9024C65.1479 42.1463 63.6839 38.6829 59.4383 38.6829C55.5831 38.6829 52.9479 42.2927 52.9479 45.3171V57.4634H51.6791V42.3902C51.6791 40.7317 51.6303 39.5122 51.5327 38H52.7527L52.8503 41.6098H52.8991C54.2655 39.122 56.7055 37.561 59.6823 37.561C61.1951 37.561 66.3679 38.2439 66.3679 45.7561V57.4634H66.4167Z" fill="#358EC5"/>
<path d="M86.3759 57.6098H84.7655L76.3719 47.0732L74.3223 49.1708V57.6098H73.0535V28.7805H74.3223V47.8049H74.3711C74.8591 47.2683 75.6887 46.3903 76.3231 45.7561L83.5943 38.1952H85.2047L77.2015 46.2927L86.3759 57.6098Z" fill="#358EC5"/>
</svg>
